<svg width="25" height="24" viewBox="0 0 25 24" fill="none" xmlns="http://www.w3.org/2000/svg">
<path d="M9.90969 2.10001L15.4233 2.10169C17.3671 2.12207 18.3488 2.32994 19.3665 2.87421C20.3382 3.39385 21.1061 4.1618 21.6258 5.13345C22.2003 6.20767 22.4 7.24181 22.4 9.40972V14.5903C22.4 16.7582 22.2003 17.7923 21.6258 18.8666C21.1061 19.8382 20.3382 20.6062 19.3665 21.1258C18.2923 21.7003 17.2582 21.9 15.0903 21.9H9.90969C7.74178 21.9 6.70764 21.7003 5.63342 21.1258C4.66177 20.6062 3.89382 19.8382 3.37418 18.8666C2.79968 17.7923 2.59998 16.7582 2.59998 14.5903L2.60166 9.07667C2.62204 7.13284 2.82991 6.15113 3.37418 5.13345C3.89382 4.1618 4.66177 3.39385 5.63342 2.87421C6.70764 2.29971 7.74178 2.10001 9.90969 2.10001ZM15.5895 13.2916L11.8616 17.8219C11.5461 18.2053 10.9797 18.2607 10.5958 17.9458L8.55402 16.2709L5.74815 19.0265C5.96762 19.2234 6.21261 19.3943 6.4823 19.5385C7.17823 19.9107 7.85463 20.0664 9.34752 20.095L9.90969 20.1H15.0903L15.6524 20.095C16.9697 20.0697 17.6513 19.9456 18.2715 19.6611L18.5177 19.5385C19.1756 19.1867 19.6866 18.6757 20.0385 18.0177C20.1383 17.8311 20.2226 17.6458 20.293 17.4459L15.5895 13.2916ZM15.0903 3.90001H9.90969L9.34752 3.90499C8.03027 3.93026 7.34868 4.05442 6.72847 4.33896L6.4823 4.46147C5.82433 4.81336 5.31333 5.32436 4.96144 5.98233L4.83892 6.2285C4.51645 6.93141 4.39998 7.71314 4.39998 9.40972V14.5903L4.40496 15.1525C4.42669 16.285 4.52151 16.9476 4.7285 17.5053L7.86934 14.4204C8.19732 14.0983 8.71535 14.0751 9.07078 14.3667L11.0427 15.9842L14.7918 11.4281C15.1155 11.0348 15.7008 10.9882 16.0826 11.3255L20.5914 15.3105C20.5928 15.2588 20.594 15.2062 20.595 15.1525L20.6 14.5903V9.40972L20.595 8.84755C20.5697 7.5303 20.4456 6.84871 20.161 6.2285L20.0385 5.98233C19.6866 5.32436 19.1756 4.81336 18.5177 4.46147C17.8217 4.08928 17.1453 3.93363 15.6524 3.90499L15.0903 3.90001ZM8.99998 7.00001C9.8284 7.00001 10.5 7.67158 10.5 8.50001C10.5 9.32843 9.8284 10 8.99998 10C8.17155 10 7.49998 9.32843 7.49998 8.50001C7.49998 7.67158 8.17155 7.00001 8.99998 7.00001Z" fill="#818C99"/>
</svg>
