<svg width="24" height="24" viewBox="0 0 24 24" fill="none" xmlns="http://www.w3.org/2000/svg">
<path d="M9 16H15V10H18.0343C18.2552 10 18.4343 9.82094 18.4343 9.60003C18.4343 9.49394 18.3922 9.3922 18.3172 9.31718L12.2828 3.28287C12.1266 3.12666 11.8734 3.12666 11.7172 3.28287L5.68284 9.31718C5.52663 9.47339 5.52663 9.72666 5.68284 9.88287C5.75786 9.95788 5.8596 10 5.96569 10H9V16ZM6 18H18C18.5523 18 19 18.4477 19 19C19 19.5523 18.5523 20 18 20H6C5.44772 20 5 19.5523 5 19C5 18.4477 5.44772 18 6 18Z" fill="#434DFF"/>
</svg>
